<svg width="32" height="32" viewBox="0 0 32 32" fill="none" xmlns="http://www.w3.org/2000/svg">
<path d="M10.8937 29C8.37066 29 7.16364 27.5924 6.59529 26.4115C6.00675 25.1885 6 23.967 6 23.9156V7.08442C6 7.03305 6.00675 5.81144 6.59529 4.58849C7.16364 3.40762 8.37066 2 10.8937 2H18.9937C19.0845 2 21.243 2.01303 23.4211 3.14446C25.4815 4.21482 27.9375 6.49719 27.9375 11.2922C27.9375 16.0872 25.4815 18.3696 23.4211 19.4399C21.243 20.5714 19.0845 20.5844 18.9937 20.5844H15.7875V23.9156C15.7875 23.967 15.7808 25.1885 15.1922 26.4115C14.6239 27.5924 13.4168 29 10.8937 29ZM7.6875 23.9156C7.68756 23.9206 7.70049 24.8187 8.12737 25.6737C8.65579 26.7322 9.56068 27.2468 10.8937 27.2468C12.2461 27.2468 13.1584 26.7171 13.6828 25.6275C14.0886 24.7841 14.1 23.9241 14.1 23.9156V20.6205C13.3512 20.6716 12.2038 20.7945 11.0734 21.0908C8.82667 21.6794 7.6875 22.6299 7.6875 23.9156ZM14.9437 18.8312H18.9937C19.0107 18.8311 20.8903 18.8112 22.7152 17.8462C25.0607 16.6058 26.25 14.4007 26.25 11.2922C26.25 8.16161 25.0443 5.9479 22.6664 4.71268C20.8407 3.76423 19.012 3.75325 18.9937 3.75325H10.8937C9.54139 3.75325 8.62907 4.2829 8.10471 5.37255C7.69886 6.21586 7.6875 7.07594 7.6875 7.08442V20.7164C8.38731 20.194 9.35756 19.7292 10.6891 19.3833C12.7907 18.8374 14.8568 18.8312 14.9437 18.8312Z" fill="white"/>
</svg>
