<svg width="36" height="36" viewBox="0 0 36 36" fill="none" xmlns="http://www.w3.org/2000/svg"
  xmlns:xlink="http://www.w3.org/1999/xlink" version="1.1">
  <path
    d="M11.8 34C8.80967 34 7.37913 32.3317 6.70553 30.9322C6.008 29.4827 6 28.035 6 27.974V8.02597C6 7.96509 6.008 6.51726 6.70553 5.06784C7.37913 3.66829 8.80967 2 11.8 2H21.4C21.5076 2 24.0657 2.01545 26.6472 3.3564C29.0891 4.62497 32 7.33001 32 13.013C32 18.696 29.0891 21.401 26.6472 22.6695C24.0657 24.0105 21.5076 24.026 21.4 24.026H17.6V27.974C17.6 28.035 17.592 29.4827 16.8945 30.9322C16.2209 32.3317 14.7903 34 11.8 34ZM8 27.974C8.00007 27.9799 8.0154 29.0444 8.52133 30.0578C9.1476 31.3123 10.2201 31.9221 11.8 31.9221C13.4028 31.9221 14.4841 31.2943 15.1055 30.0029C15.5865 29.0034 15.6 27.9841 15.6 27.974V24.0688C14.7125 24.1292 13.3527 24.275 12.0129 24.6261C9.35013 25.3238 8 26.4502 8 27.974ZM16.6 21.9481H21.4C21.4201 21.948 23.6478 21.9244 25.8106 20.7807C28.5905 19.3106 30 16.6971 30 13.013C30 9.30265 28.571 6.679 25.7528 5.21503C23.5889 4.09094 21.4216 4.07792 21.4 4.07792H11.8C10.1972 4.07792 9.11593 4.70566 8.49447 5.99709C8.01347 6.99657 8 8.01593 8 8.02597V24.1824C8.8294 23.5633 9.97933 23.0124 11.5575 22.6025C14.0483 21.9555 16.497 21.9481 16.6 21.9481Z"
    fill="#000000" />
</svg>
