<?xml version="1.0" standalone="no"?>
<!DOCTYPE svg PUBLIC "-//W3C//DTD SVG 20010904//EN"
 "http://www.w3.org/TR/2001/REC-SVG-20010904/DTD/svg10.dtd">
<svg version="1.0" xmlns="http://www.w3.org/2000/svg"
 width="1068.000000pt" height="1068.000000pt" viewBox="0 0 1068.000000 1068.000000"
 preserveAspectRatio="xMidYMid meet">
<metadata>
Created by potrace 1.11, written by Peter Selinger 2001-2013
</metadata>
<g transform="translate(0.000000,1068.000000) scale(0.100000,-0.100000)"
fill="#000000" stroke="none">
<path d="M3217 9964 c-1 -1 -63 -5 -137 -8 -147 -7 -186 -11 -292 -31 -16 -3
-39 -7 -52 -9 -38 -7 -179 -45 -201 -55 -11 -5 -40 -17 -64 -26 -81 -30 -201
-88 -201 -96 0 -5 -5 -9 -11 -9 -49 0 -344 -254 -425 -365 -16 -22 -31 -42
-34 -45 -14 -14 -80 -121 -80 -130 0 -5 -3 -10 -8 -10 -4 0 -15 -17 -25 -37
-9 -21 -22 -45 -27 -53 -53 -80 -173 -438 -185 -550 -2 -14 -4 -25 -5 -25 -5
0 -26 -193 -33 -300 -1 -16 1 -39 5 -51 3 -11 3 -27 -2 -34 -4 -7 -4 -26 0
-41 5 -16 5 -29 0 -29 -4 0 -4 -16 0 -35 4 -19 5 -35 1 -35 -8 0 -6 -68 2 -76
3 -3 2 -17 -3 -30 -5 -13 -6 -26 0 -29 5 -3 5 -18 1 -33 -4 -15 -4 -39 0 -54
4 -16 4 -28 -1 -28 -4 0 -4 -16 0 -35 4 -19 5 -35 1 -35 -8 0 -6 -68 2 -76 3
-3 2 -17 -3 -30 -5 -13 -6 -26 0 -29 5 -3 5 -18 1 -33 -4 -15 -4 -39 0 -54 4
-16 4 -28 -1 -28 -4 0 -4 -16 0 -35 4 -19 5 -35 1 -35 -8 0 -6 -68 2 -76 3 -3
2 -17 -3 -30 -5 -13 -6 -26 0 -29 5 -3 5 -18 1 -33 -4 -15 -4 -39 0 -54 4 -16
4 -28 -1 -28 -4 0 -4 -16 0 -35 4 -19 5 -35 1 -35 -8 0 -6 -68 2 -76 3 -3 2
-16 -3 -29 -5 -13 -6 -26 -3 -29 5 -5 8 -80 3 -88 -5 -10 -4 -268 1 -268 4 0
3 -16 -1 -35 -4 -19 -4 -35 1 -35 5 0 4 -11 -1 -24 -5 -13 -6 -27 -3 -30 7 -7
10 -86 3 -86 -5 0 -4 -58 0 -70 1 -3 1 -9 0 -15 -5 -24 -3 -105 3 -111 3 -3 2
-16 -3 -29 -5 -13 -6 -26 -3 -29 8 -7 10 -76 3 -76 -3 0 -4 -19 -2 -42 1 -24
4 -58 5 -75 1 -18 0 -33 -3 -33 -5 0 -4 -58 0 -70 1 -3 1 -9 0 -15 -5 -23 -2
-116 3 -122 4 -3 3 -13 -2 -22 -5 -9 -5 -25 -1 -36 4 -11 4 -32 -1 -47 -4 -16
-4 -28 1 -28 6 0 6 -10 0 -24 -5 -13 -6 -27 -3 -30 7 -7 10 -86 3 -86 -5 0 -4
-58 0 -70 1 -3 1 -9 0 -15 -5 -24 -3 -105 3 -111 3 -3 2 -16 -3 -29 -5 -13 -6
-26 -3 -29 8 -7 10 -76 3 -76 -3 0 -4 -19 -2 -42 1 -24 4 -58 5 -75 1 -18 0
-33 -3 -33 -5 0 -4 -58 0 -70 1 -3 1 -9 0 -15 -5 -23 -2 -116 3 -122 4 -3 3
-13 -2 -22 -5 -9 -5 -25 -1 -36 4 -11 4 -32 -1 -47 -4 -16 -4 -28 1 -28 6 0 6
-10 0 -24 -5 -13 -6 -27 -3 -30 7 -7 10 -86 3 -86 -7 0 -5 -59 3 -66 3 -3 2
-16 -2 -28 -11 -28 -11 -30 -1 -66 5 -16 5 -30 0 -30 -4 0 -4 -16 0 -35 4 -19
5 -35 1 -35 -8 0 -6 -68 2 -76 3 -3 2 -17 -3 -30 -5 -13 -6 -26 0 -29 5 -3 5
-18 1 -33 -4 -15 -4 -39 0 -55 4 -15 4 -27 -1 -27 -4 0 -4 -16 0 -35 4 -19 5
-35 1 -35 -8 0 -6 -68 2 -76 3 -3 2 -17 -3 -30 -5 -13 -6 -26 0 -29 5 -3 5
-18 1 -33 -4 -15 -4 -39 0 -54 4 -16 4 -28 -1 -28 -4 0 -4 -16 0 -35 4 -19 5
-35 1 -35 -8 0 -6 -68 2 -76 3 -3 2 -17 -3 -30 -5 -13 -6 -26 0 -29 5 -3 5
-18 1 -33 -4 -15 -4 -39 0 -55 4 -15 4 -27 -1 -27 -4 0 -4 -16 0 -35 4 -19 5
-35 1 -35 -8 0 -6 -68 2 -76 3 -3 2 -17 -3 -30 -5 -13 -6 -25 -2 -28 5 -3 5
-30 2 -61 -3 -31 -3 -58 2 -61 4 -3 3 -15 -2 -28 -5 -13 -6 -27 -3 -30 8 -7
10 -76 3 -76 -3 0 -4 -19 -2 -42 1 -24 4 -58 5 -76 1 -17 0 -32 -3 -32 -7 0
-5 -59 3 -66 3 -3 3 -16 -1 -28 -4 -11 -6 -43 -5 -71 4 -84 13 -188 19 -225 3
-19 8 -51 10 -70 3 -19 14 -75 25 -123 12 -49 22 -94 23 -100 2 -7 6 -19 9
-27 3 -8 14 -44 26 -80 11 -36 27 -83 37 -105 9 -22 16 -42 17 -45 0 -11 112
-225 119 -228 5 -2 8 -10 8 -18 0 -8 5 -14 10 -14 6 0 10 -5 10 -12 0 -9 26
-47 100 -142 41 -53 152 -163 214 -214 39 -31 73 -60 74 -64 2 -5 10 -8 17 -8
8 0 20 -6 27 -13 71 -69 400 -208 553 -233 51 -8 92 -15 110 -19 124 -26 595
-27 665 -1 8 3 33 8 55 10 22 3 40 5 40 6 0 1 9 3 19 5 54 10 162 39 171 45 6
4 24 11 40 15 50 14 84 28 147 61 27 13 51 24 54 23 3 -1 27 12 52 29 26 16
67 42 92 57 24 16 50 33 56 39 7 6 25 20 40 31 36 25 207 197 252 253 75 93
189 291 232 402 11 30 25 64 30 75 24 53 80 256 95 345 3 19 10 60 15 90 18
105 28 350 14 371 -2 4 0 10 6 14 6 4 8 10 5 15 -5 8 -5 22 -6 175 0 79 0 93
2 118 0 6 0 38 -1 69 -1 31 0 60 3 65 2 4 1 17 -3 28 -4 11 -4 30 1 42 5 12 4
25 0 27 -5 3 -5 23 -1 45 4 22 4 45 -1 52 -4 7 -4 22 0 33 4 12 6 30 5 41 -4
29 -5 51 -4 138 1 42 -2 82 -5 87 -3 6 0 10 7 10 10 0 10 2 1 8 -8 5 -9 13 -3
22 5 8 12 12 15 8 4 -3 20 -2 36 2 17 5 31 5 35 -1 3 -5 10 -7 15 -4 10 7 138
8 179 2 14 -2 30 1 37 5 6 5 14 5 17 -1 4 -6 16 -7 29 -2 12 5 31 5 42 1 11
-4 25 -3 32 2 7 5 14 5 17 -1 4 -7 15 -7 31 -1 14 5 27 5 30 0 3 -5 18 -5 33
-1 29 7 90 6 99 -3 3 -2 16 -1 29 4 16 6 24 6 24 -1 0 -6 6 -7 16 -1 9 5 34 6
55 2 21 -4 39 -5 39 -1 0 3 11 6 25 6 14 0 25 -4 25 -8 0 -4 7 -4 16 1 9 5 34
6 55 2 21 -4 39 -4 39 0 0 7 70 4 77 -4 3 -3 16 -1 29 4 16 6 24 6 24 -1 0 -6
4 -7 10 -4 5 3 61 8 122 11 147 6 200 11 383 39 33 5 149 28 255 49 14 3 61
15 105 27 44 11 87 22 95 24 8 2 53 15 100 30 47 15 90 28 95 30 6 1 17 5 25
8 8 4 42 16 75 28 33 12 64 25 70 30 5 5 15 9 23 9 29 0 334 147 440 212 34
21 67 38 72 38 6 0 10 4 10 8 0 5 12 15 28 23 51 26 253 174 260 192 2 4 8 7
12 7 9 0 72 54 157 136 29 28 55 49 58 46 3 -3 5 0 5 6 0 7 21 33 48 60 26 27
65 70 87 97 22 27 46 54 53 61 6 7 12 15 12 19 0 3 9 16 20 28 36 39 120 161
120 174 0 7 4 13 8 13 5 0 14 10 20 22 7 13 28 50 47 83 35 59 116 222 150
300 19 45 104 282 110 305 1 8 8 35 15 60 7 25 13 50 15 55 1 6 5 17 8 25 3 8
8 26 10 40 3 14 8 36 11 50 4 14 8 40 11 59 2 18 7 41 9 50 3 9 8 36 11 61 4
24 8 47 10 50 3 6 11 64 20 165 2 17 4 30 5 30 2 0 10 127 14 227 2 47 6 91
10 96 3 6 2 13 -2 16 -5 3 -8 18 -6 33 4 33 5 71 3 134 -1 25 1 51 5 57 4 7 3
12 -1 12 -5 0 -9 19 -10 43 -2 94 -17 289 -28 352 -3 17 -7 48 -10 70 -5 38
-7 52 -20 115 -2 14 -7 40 -10 59 -3 19 -8 38 -10 41 -3 4 -7 25 -11 46 -3 21
-17 76 -30 121 -13 46 -24 90 -24 98 0 8 -4 15 -8 15 -4 0 -8 10 -9 22 -2 19
-10 47 -33 103 -4 11 -18 47 -31 80 -48 127 -220 461 -250 485 -3 3 -12 16
-19 29 -7 14 -17 30 -22 35 -5 6 -26 36 -48 66 -37 52 -59 80 -120 153 -62 74
-317 322 -362 352 -9 6 -51 37 -94 70 -44 33 -104 76 -134 95 -30 19 -57 37
-60 40 -3 3 -16 11 -29 18 -13 8 -40 23 -60 34 -78 45 -214 118 -219 118 -2 0
-32 13 -66 29 -52 25 -108 50 -126 56 -3 1 -18 7 -35 14 -96 40 -347 122 -415
136 -8 2 -15 4 -15 6 0 1 -9 3 -20 5 -11 1 -49 10 -85 19 -71 18 -88 22 -140
31 -19 4 -44 9 -55 11 -11 2 -31 6 -45 9 -14 2 -41 7 -60 10 -43 9 -48 9 -140
19 -41 4 -83 9 -94 11 -16 3 -206 16 -231 16 -5 0 -35 -1 -65 -1 -30 -1 -134
-1 -230 -1 -96 1 -177 0 -180 -1 -3 -1 -9 0 -15 1 -12 2 -286 2 -300 -1 -5 -1
-14 0 -20 1 -5 1 -93 1 -195 1 -102 -1 -192 -2 -200 -2 -11 0 -537 0 -635 0
-5 0 -129 1 -275 1 -146 1 -269 0 -275 -1 -5 -1 -14 0 -20 1 -24 4 -296 2
-301 -3 -3 -3 -12 -3 -19 -1 -11 5 -114 11 -118 8z m90 -604 c37 0 104 0 148
1 44 0 85 0 90 -1 6 -1 15 -2 20 -1 6 1 55 2 110 2 765 -2 1589 0 1593 3 2 3
14 1 27 -4 13 -5 25 -6 28 -3 3 3 59 4 124 3 65 -1 123 -1 128 -1 6 0 53 1
105 1 52 1 100 1 105 0 6 -1 15 -2 20 -1 24 4 248 1 253 -3 2 -3 12 -1 22 4
10 5 20 6 24 3 3 -4 23 -8 44 -9 65 -4 176 -14 207 -19 17 -2 46 -7 65 -10 19
-3 51 -8 70 -10 29 -4 121 -24 240 -52 14 -3 30 -7 35 -8 35 -8 172 -48 180
-53 6 -4 15 -7 20 -8 61 -10 292 -108 445 -187 348 -181 633 -432 833 -734 60
-91 127 -211 127 -229 0 -8 4 -14 8 -14 6 0 24 -35 36 -70 1 -3 10 -23 20 -45
45 -101 125 -360 127 -407 0 -4 5 -22 10 -40 5 -18 12 -49 15 -68 2 -19 7 -46
10 -60 2 -14 7 -43 9 -65 3 -22 7 -51 10 -65 9 -53 17 -155 20 -274 1 -69 6
-129 10 -135 3 -6 3 -11 -2 -11 -4 0 -8 -11 -8 -25 0 -14 4 -25 8 -25 5 0 5
-5 2 -10 -4 -6 -9 -61 -11 -123 -4 -125 -9 -189 -20 -262 -4 -27 -8 -65 -8
-82 -1 -18 -3 -33 -6 -33 -3 0 -6 -10 -8 -23 -1 -21 -26 -142 -39 -192 -2 -11
-6 -29 -8 -40 -2 -11 -10 -39 -19 -62 -8 -24 -13 -43 -9 -43 3 0 0 -7 -7 -15
-7 -8 -9 -15 -5 -15 4 0 2 -7 -5 -15 -7 -8 -9 -15 -5 -15 4 0 2 -7 -5 -15 -7
-8 -10 -15 -7 -15 7 0 -34 -102 -84 -208 -21 -46 -39 -88 -39 -93 0 -5 -5 -9
-12 -9 -6 0 -9 -3 -5 -6 3 -3 -5 -24 -19 -45 -13 -21 -24 -43 -24 -48 0 -5 -4
-11 -8 -13 -5 -1 -26 -32 -47 -68 -22 -36 -47 -72 -55 -80 -8 -8 -26 -31 -40
-50 -102 -145 -325 -349 -530 -484 -90 -60 -309 -178 -395 -213 -17 -7 -61
-25 -100 -41 -38 -16 -72 -29 -75 -30 -3 0 -12 -3 -20 -6 -23 -8 -184 -58
-195 -60 -5 -2 -17 -6 -25 -9 -8 -3 -26 -8 -40 -10 -14 -3 -65 -14 -115 -25
-129 -30 -147 -33 -180 -37 -16 -2 -30 -4 -30 -5 0 -2 -26 -6 -95 -14 -30 -3
-66 -8 -80 -11 -21 -5 -399 -18 -450 -16 -8 0 -116 0 -240 0 -124 0 -232 0
-240 0 -8 0 -116 0 -240 0 -124 0 -232 0 -240 0 -13 1 -205 0 -235 0 -5 0 -19
0 -30 1 -17 1 -35 1 -87 0 -60 0 -373 -23 -483 -35 -27 -3 -75 -8 -105 -10
-30 -3 -66 -7 -79 -10 -13 -2 -46 -7 -75 -10 -28 -4 -64 -8 -81 -11 -77 -11
-91 -13 -110 -17 -11 -3 -42 -8 -70 -12 -75 -11 -84 -13 -160 -30 -38 -9 -81
-18 -95 -20 -14 -2 -32 -6 -40 -9 -8 -3 -26 -8 -40 -11 -50 -10 -106 -24 -165
-40 -33 -9 -67 -18 -75 -20 -8 -2 -34 -10 -57 -19 -24 -8 -43 -13 -43 -9 0 3
-6 1 -12 -4 -7 -6 -31 -16 -53 -22 -22 -7 -47 -15 -55 -18 -8 -4 -17 -7 -20
-7 -7 -2 -70 -26 -95 -37 -11 -5 -27 -10 -35 -11 -8 -2 -17 -5 -20 -9 -3 -3
-30 -15 -60 -28 -66 -27 -143 -64 -150 -71 -3 -3 -32 -18 -65 -35 -33 -16 -96
-53 -140 -82 -81 -53 -103 -54 -85 -7 6 14 5 26 -1 29 -5 4 -7 11 -3 16 8 13
9 107 2 115 -3 3 -2 21 2 40 5 19 4 37 -1 40 -5 3 -7 10 -3 15 7 12 9 117 2
124 -3 4 -2 22 2 41 4 18 4 34 -1 34 -5 0 -4 11 1 25 6 15 6 26 -1 30 -5 4 -7
11 -3 16 3 6 6 34 5 62 -1 29 -1 66 0 82 1 17 1 38 0 48 -3 40 -3 54 1 95 2
23 0 42 -4 42 -4 0 -3 11 2 25 6 15 6 26 -1 30 -5 4 -7 11 -3 16 5 8 6 66 3
144 0 11 1 39 3 63 2 23 0 42 -4 42 -4 0 -3 11 2 25 6 15 6 27 0 30 -5 3 -6
16 -2 28 8 24 8 74 0 83 -3 3 -2 21 2 40 4 18 4 34 -1 34 -5 0 -4 11 1 25 6
15 6 26 -1 30 -5 4 -7 11 -3 16 8 13 9 107 2 115 -3 3 -2 21 2 40 5 19 4 37
-1 40 -5 3 -7 10 -3 15 7 12 9 117 2 124 -3 4 -2 22 2 41 4 18 4 34 -1 34 -5
0 -4 11 1 25 6 15 6 26 -1 30 -5 4 -7 11 -3 16 8 13 9 107 2 115 -3 3 -2 21 2
40 5 19 4 37 -1 40 -5 3 -7 10 -3 15 7 12 9 117 2 124 -3 4 -2 22 2 41 4 18 4
34 -1 34 -5 0 -4 11 1 25 6 15 6 26 -1 30 -5 4 -7 11 -3 16 3 6 6 34 5 62 -1
29 -1 66 0 82 1 17 1 38 0 48 -3 40 -3 54 1 95 2 23 0 42 -4 42 -4 0 -3 11 2
25 6 15 6 26 -1 30 -5 4 -7 11 -3 16 5 8 6 66 3 144 0 11 1 39 3 63 2 23 0 42
-4 42 -4 0 -3 11 2 25 6 15 6 27 0 30 -5 3 -6 16 -2 28 8 24 8 74 0 83 -3 3
-2 21 2 40 4 18 4 34 -1 34 -5 0 -4 11 1 25 6 15 6 26 -1 30 -5 4 -7 11 -3 16
8 13 9 107 2 115 -3 3 -2 21 2 40 5 19 4 37 -1 40 -5 3 -7 10 -3 15 7 12 9
117 2 124 -3 4 -2 22 2 41 4 18 4 34 -1 34 -5 0 -4 11 1 25 6 15 6 26 -1 30
-5 4 -7 11 -3 16 8 13 9 107 2 115 -3 3 -2 21 2 40 5 19 4 37 -1 40 -5 3 -7
10 -3 15 7 12 9 117 2 124 -3 4 -2 22 2 41 4 18 4 34 -1 34 -5 0 -4 11 1 25 6
15 6 26 -1 30 -5 4 -7 11 -3 16 5 9 6 30 3 119 0 8 1 40 2 70 1 30 0 60 -1 65
-1 6 -2 12 -1 15 1 3 4 28 6 57 5 56 8 75 26 162 15 75 15 74 22 91 3 8 13 43
23 78 9 34 20 62 24 62 4 0 7 6 7 13 0 27 103 225 125 239 7 4 10 8 6 8 -20 0
190 215 226 231 11 5 41 22 66 38 25 16 52 30 61 30 8 1 20 6 27 13 6 6 17 13
24 14 7 1 40 12 72 23 33 12 61 19 64 16 3 -2 13 0 23 5 16 9 34 13 119 26 14
2 76 6 139 9 63 3 116 7 119 10 3 2 8 2 12 0 5 -3 39 -5 77 -5z m1012 -5884
c0 -61 0 -115 1 -121 2 -5 2 -14 0 -20 -1 -5 -1 -33 0 -62 1 -60 1 -89 0 -301
0 -84 2 -157 5 -162 4 -6 3 -10 -2 -10 -4 0 -8 -70 -8 -155 0 -85 4 -155 8
-155 5 0 6 -4 3 -8 -2 -4 -7 -40 -11 -80 -3 -39 -8 -82 -10 -94 -3 -12 -7 -40
-11 -63 -7 -46 -9 -54 -16 -75 -3 -8 -13 -42 -23 -75 -21 -77 -20 -74 -35
-114 -11 -30 -28 -63 -107 -213 -8 -16 -19 -28 -24 -28 -5 0 -9 -6 -9 -14 0
-8 -42 -56 -93 -108 -99 -99 -106 -105 -149 -127 -16 -8 -28 -18 -28 -23 0 -5
-4 -7 -9 -3 -5 3 -12 1 -16 -5 -5 -8 -55 -34 -85 -45 -3 -1 -18 -7 -35 -14
-37 -15 -171 -52 -205 -57 -14 -2 -50 -7 -80 -11 -61 -8 -368 -8 -415 0 -16 3
-46 8 -65 12 -61 10 -181 45 -211 60 -16 9 -29 13 -29 11 0 -9 -113 55 -176
100 -63 45 -139 120 -189 189 -17 22 -32 42 -35 45 -27 27 -113 210 -143 306
-54 172 -68 246 -72 389 -7 229 87 415 295 583 36 29 70 57 77 62 7 6 17 10
23 10 5 0 10 5 10 10 0 6 7 10 15 10 8 0 15 4 15 8 0 4 12 13 28 19 15 7 60
30 100 52 40 22 75 40 77 40 3 0 19 8 35 16 16 8 33 16 37 16 5 1 19 6 33 11
48 20 185 69 200 73 8 2 15 4 15 5 0 1 7 3 15 5 8 2 71 19 140 38 110 31 220
57 300 72 14 3 48 9 75 15 28 5 61 12 75 14 14 3 34 7 45 9 11 3 49 8 85 12
36 4 67 8 70 10 3 1 32 6 65 9 33 4 76 9 95 11 89 12 120 15 195 21 44 3 81 7
82 7 1 1 18 3 37 3 l36 1 -1 -111z"/>
</g>
</svg>
