<?xml version="1.0" standalone="no"?>
<!DOCTYPE svg PUBLIC "-//W3C//DTD SVG 20010904//EN"
 "http://www.w3.org/TR/2001/REC-SVG-20010904/DTD/svg10.dtd">
<svg version="1.0" xmlns="http://www.w3.org/2000/svg"
 width="904.000000pt" height="904.000000pt" viewBox="0 0 904.000000 904.000000"
 preserveAspectRatio="xMidYMid meet">
<metadata>
Created by potrace 1.11, written by Peter Selinger 2001-2013
</metadata>
<g transform="translate(0.000000,904.000000) scale(0.100000,-0.100000)"
fill="#000000" stroke="none">
<path d="M2130 9035 c-8 -2 -51 -9 -95 -16 -551 -84 -972 -421 -1178 -944 -50
-125 -92 -279 -117 -419 -20 -118 -20 -140 -20 -3136 0 -2996 0 -3018 20
-3136 68 -394 222 -711 462 -951 223 -224 466 -345 833 -415 47 -9 155 -13
325 -13 170 0 278 4 325 13 367 70 610 191 833 415 242 242 393 557 468 977
15 81 18 194 21 783 l5 687 698 0 c641 0 711 2 853 20 1214 158 2114 775 2514
1725 172 407 243 800 243 1335 0 535 -71 928 -243 1335 -144 342 -327 608
-603 875 -201 194 -420 349 -692 486 -365 185 -767 305 -1219 364 -149 19
-207 20 -1786 19 -898 -1 -1639 -3 -1647 -4z m3360 -421 c708 -82 1339 -367
1751 -791 339 -349 531 -741 629 -1288 57 -318 53 -860 -9 -1200 -193 -1054
-922 -1746 -2090 -1985 -263 -53 -243 -52 -1266 -60 -987 -8 -1073 -11 -1440
-56 -840 -102 -1498 -327 -1871 -641 -28 -24 -54 -43 -58 -43 -3 0 -6 1113 -6
2473 0 2199 2 2482 16 2562 93 537 378 885 819 1001 156 42 159 42 1805 43
1379 1 1603 -1 1720 -15z m-1895 -6399 c0 -678 -1 -689 -46 -880 -109 -465
-389 -775 -794 -881 -224 -59 -566 -59 -790 0 -394 103 -664 393 -785 841
-114 423 -37 717 251 960 373 315 1066 526 1968 600 86 7 165 12 176 11 20 -1
20 -8 20 -651z"/>
</g>
</svg>
